<svg xmlns="http://www.w3.org/2000/svg" width="1400" height="900" viewBox="0 0 1400 900" role="img" aria-label="Mesa cargada de fichas">
  <defs>
    <linearGradient id="bg" x1="0" y1="0" x2="0" y2="1">
      <stop offset="0" stop-color="#09100e"/>
      <stop offset="1" stop-color="#050808"/>
    </linearGradient>
  </defs>
  <rect width="1400" height="900" fill="url(#bg)"/>
  <ellipse cx="700" cy="490" rx="560" ry="280" fill="#105e39" stroke="#1de287" stroke-opacity="0.25" stroke-width="7"/>

  <g>
    <g fill="#fff">
      <circle cx="470" cy="560" r="44"/><circle cx="560" cy="520" r="44"/><circle cx="650" cy="550" r="44"/>
      <circle cx="740" cy="520" r="44"/><circle cx="830" cy="550" r="44"/><circle cx="920" cy="525" r="44"/>
    </g>
    <g fill="#e53935">
      <circle cx="470" cy="560" r="30"/><circle cx="560" cy="520" r="30"/><circle cx="650" cy="550" r="30"/>
    </g>
    <g fill="#101010">
      <circle cx="740" cy="520" r="30"/><circle cx="830" cy="550" r="30"/><circle cx="920" cy="525" r="30"/>
    </g>
  </g>

  <g>
    <rect x="610" y="360" width="95" height="135" rx="10" fill="#f7f7f7"/>
    <rect x="705" y="350" width="95" height="135" rx="10" fill="#f7f7f7"/>
    <text x="657" y="435" text-anchor="middle" font-size="58" fill="#d62e2e" font-family="Arial">♥</text>
    <text x="752" y="425" text-anchor="middle" font-size="58" fill="#111" font-family="Arial">♠</text>
  </g>

  <text x="700" y="150" text-anchor="middle" fill="#f2f8f6" font-size="58" font-family="Arial, Helvetica, sans-serif" font-weight="700">MESA CARGADA DE FICHAS</text>
  <text x="700" y="780" text-anchor="middle" fill="#b9cfc6" font-size="30" font-family="Arial, Helvetica, sans-serif">Banca cargada y accion al maximo</text>
</svg>
