<svg xmlns="http://www.w3.org/2000/svg" width="1400" height="900" viewBox="0 0 1400 900" role="img" aria-label="Ambiente nocturno exclusivo">
  <defs>
    <linearGradient id="bg" x1="0" y1="0" x2="1" y2="1">
      <stop offset="0" stop-color="#07090f"/>
      <stop offset="1" stop-color="#1b0f1f"/>
    </linearGradient>
  </defs>
  <rect width="1400" height="900" fill="url(#bg)"/>
  <circle cx="260" cy="170" r="120" fill="#ff3d3d" fill-opacity="0.2"/>
  <circle cx="1150" cy="720" r="160" fill="#00d66b" fill-opacity="0.18"/>

  <rect x="180" y="220" width="1040" height="470" rx="28" fill="#0e1f17" stroke="#f6c453" stroke-opacity="0.25" stroke-width="5"/>

  <g fill="#f8f8f8">
    <rect x="420" y="330" width="90" height="130" rx="10" transform="rotate(-8 420 330)"/>
    <rect x="540" y="345" width="90" height="130" rx="10" transform="rotate(-4 540 345)"/>
    <rect x="660" y="355" width="90" height="130" rx="10"/>
    <rect x="780" y="345" width="90" height="130" rx="10" transform="rotate(4 780 345)"/>
    <rect x="900" y="330" width="90" height="130" rx="10" transform="rotate(8 900 330)"/>
  </g>

  <text x="700" y="150" text-anchor="middle" fill="#fff3d0" font-size="54" font-family="Arial, Helvetica, sans-serif" font-weight="700">NOCHE PRIVADA PARA JUGADORES SERIOS</text>
  <text x="700" y="760" text-anchor="middle" fill="#bfd1ca" font-size="30" font-family="Arial, Helvetica, sans-serif">Elegante. Exclusiva. Inolvidable.</text>
</svg>
